<?xml version="1.0" encoding="utf-8"?>
<!-- Generator: Adobe Illustrator 22.0.1, SVG Export Plug-In . SVG Version: 6.00 Build 0)  -->
<svg version="1.1" id="Livello_1" xmlns="http://www.w3.org/2000/svg" xmlns:xlink="http://www.w3.org/1999/xlink" x="0px" y="0px"
	 viewBox="0 0 652 652" style="enable-background:new 0 0 652 652;" xml:space="preserve">
<style type="text/css">
	.st0{fill:#22273F;}
	.st1{fill:#ED6E6F;}
	.st2{fill:#FFDA6E;}
	.st3{fill:url(#SVGID_1_);}
</style>
<path class="st0" d="M550.3,624.9H101.7c-36.5,0-66.2-29.6-66.2-66.2V110.2c0-36.5,29.6-66.2,66.2-66.2h448.5
	c36.5,0,66.2,29.6,66.2,66.2v448.5C616.4,595.3,586.8,624.9,550.3,624.9z"/>
<g>
	
		<image style="overflow:visible;opacity:0.75;" width="2026" height="2192" xlink:href="5D81FABD.png"  transform="matrix(0.24 0 0 0.24 125.8993 103.695)">
	</image>
	<g>
		<path class="st1" d="M220.1,534.2h-22.6c-20.3,0-36.8-16.5-36.8-36.8V176.2c0-20.8,16.9-37.7,37.7-37.7h111.8
			c42.5,0,79.3,8.2,110.3,24.6c31,16.4,54.7,39.6,71.4,69.4c16.6,29.9,24.9,64.2,24.9,103c0,38.8-8.3,73.2-24.9,103.3
			c-16.6,30-40.5,53.5-71.6,70.2c-31.2,16.8-67.8,25.2-110,25.2h-8.7c-0.1,0-0.2-0.1-0.2-0.2l0.2-26.8c0.2-30.1,19.9-56.3,48.5-65.6
			c15.2-4.9,28.1-12.5,38.9-22.8c20.7-19.8,31.1-47.6,31.1-83.4s-10.4-63.6-31.1-83.4c-20.7-19.8-49.7-29.7-87-29.7h-45.2
			c-0.1,0-0.2,0.1-0.2,0.2l0.3,274.9C256.8,517.7,240.4,534.2,220.1,534.2z"/>
	</g>
</g>
<path class="st2" d="M382.3,525.2c69.4-21.7,94-58.5,109.5-86.5c16.6-30,24.9-64.5,24.9-103.3c0-38.8-8.3-73.1-24.9-103
	c-16.6-29.8-40.4-53-71.4-69.4c-31-16.4-67.7-24.6-110.3-24.6H198.4c-20.8,0-37.7,16.9-37.7,37.7v321.3c0,20.3,16.5,36.8,36.8,36.8
	h22.6c20.3,0,36.7-16.4,36.7-36.7l-0.3-274.9c0-0.1,0.1-0.2,0.2-0.2h45.2c37.3,0,66.3,9.9,87,29.7c20.7,19.8,31.1,47.6,31.1,83.4
	c0,35.8-10.4,63.6-31.1,83.4c-2.8,2.7-5.9,5.2-9,7.6C379.8,426.5,360.7,481.9,382.3,525.2z"/>
<linearGradient id="SVGID_1_" gradientUnits="userSpaceOnUse" x1="203.8367" y1="452.2647" x2="422.644" y2="186.4934">
	<stop  offset="9.914436e-08" style="stop-color:#5B55A0"/>
	<stop  offset="1" style="stop-color:#A195C8"/>
</linearGradient>
<path class="st3" d="M456,486.2c56.4-56.4,60.7-118.9,60.7-150.7c0-38.8-8.3-73.1-24.9-103c-16.6-29.8-40.4-53-71.4-69.4
	c-31-16.4-67.7-24.6-110.3-24.6H198.4c-20.8,0-37.7,16.9-37.7,37.7v321.3c0,20.3,16.5,36.8,36.8,36.8h22.6
	c20.3,0,36.7-16.4,36.7-36.7l-0.3-274.9c0-0.1,0.1-0.2,0.2-0.2h45.2c37.3,0,66.3,9.9,87,29.7c20.7,19.8,31.1,47.6,31.1,83.4
	c0,16.5-2.3,31.2-6.7,44.4c0,0,8.2,11,8.2,50C421.4,445.4,421.4,477.6,456,486.2z"/>
</svg>
